<svg width="24" height="24" viewBox="0 0 24 24" fill="none" xmlns="http://www.w3.org/2000/svg">
<path d="M0 2.95187C0 1.3216 1.3287 0 2.96774 0H21.0323C22.6713 0 24 1.3216 24 2.95187V21.0481C24 22.6784 22.6713 24 21.0323 24H2.96774C1.3287 24 0 22.6784 0 21.0481V2.95187Z" fill="#D9D9D9"/>
<path d="M0.645161 3.20856C0.645161 1.79093 1.80056 0.641711 3.22581 0.641711H20.9032C22.3285 0.641711 23.4839 1.79093 23.4839 3.20856V20.7914C23.4839 22.2091 22.3285 23.3583 20.9032 23.3583H3.22581C1.80056 23.3583 0.645161 22.2091 0.645161 20.7914V3.20856Z" fill="#000101"/>
<path d="M1.29032 3.09647C1.29032 2.09781 2.10905 1.29076 3.11305 1.29976L21.0003 1.46004C21.9851 1.46887 22.7814 2.26077 22.7904 3.24038L22.9511 20.7751C22.9603 21.7738 22.1489 22.5882 21.1447 22.5882H3.09677C2.0991 22.5882 1.29032 21.7838 1.29032 20.7914V3.09647Z" fill="#1E1E1E"/>
<path d="M11.5425 12.3559L3.98827 16.1828V14.6894L9.78299 11.9125L9.73607 12.0058V11.7725L9.78299 11.8658L3.98827 9.08896V7.59553L11.5425 11.4225V12.3559Z" fill="white"/>
<path d="M12.6334 12.3559V11.4225L20.1877 7.59553V9.08896L14.393 11.8658L14.4399 11.7725V12.0058L14.393 11.9125L20.1877 14.6894V16.1828L12.6334 12.3559Z" fill="white"/>
</svg>
